<?xml version="1.0" encoding="utf-8"?>

<!DOCTYPE svg PUBLIC "-//W3C//DTD SVG 1.1//EN" "http://www.w3.org/Graphics/SVG/1.1/DTD/svg11.dtd">
<svg version="1.1" id="Layer_1" xmlns="http://www.w3.org/2000/svg" xmlns:xlink="http://www.w3.org/1999/xlink" x="0px" y="0px"
	 viewBox="306.504 383.1394 1515.3751 3054.6533" enable-background="new 306.504 383.1394 1515.3751 3054.6533"
	 xml:space="preserve">
<g>
	<path fill="#453F3F" stroke="#453F3F" stroke-width="0.5" d="M1164.86,443.83c9.98-1.16,20.25-1.72,30.12,0.57
		c4.77,1.16,9.64,3.09,12.88,6.96c0.6,1.47,1.09,3,1.16,4.61c-0.13,50.67-0.1801,101.34-0.26,152
		c-1.33,21.3101-0.41,42.69-0.78,64.03c-47.15-3.41-94.37-7-141.0699-14.46c-11.8301-2.32-24.1801-3.7-35.0701-9.16
		c-0.21-0.12-0.62-0.34-0.83-0.45c-1.28,1.83-1.77,4.08-1.02,6.24c-8.02,40-11.59,80.96-10.35,121.74
		c0.76,23.13,3.44,46.2401,8.97,68.7401c5.47,23.05,12.16,45.85,20.75,67.95c5.73,15.07,14.08,28.94,22.3201,42.7401
		c7.5,12.59,16.11,24.49,25.37,35.85c-1.1101,2.13,0.6599,4.45,3.0299,3.67c0.13,0.19,0.38,0.56,0.51,0.75
		c1.23,2.16,2.74,4.2,4.8101,5.67c0.08,0.09,0.23,0.27,0.3099,0.35c1.53,2.45,3.29,4.79,5.66,6.52c0.42,0.42,0.84,0.85,1.28,1.31
		c0.0399,1.63,0.88,2.61,2.53,2.95c0.63,0.71,1.25,1.4301,1.8899,2.1801c-0.1799,1.65,0.5701,2.45,2.26,2.39
		c2.01,1.76,3.86,3.7,5.5901,5.76c-0.0701,1.58,0.71,2.37,2.3199,2.37c2.03,1.73,3.95,3.6,5.77,5.58
		c-0.04,1.6201,0.77,2.4,2.41,2.3401c2.86,4.8099,1.9199,10.58,2.2899,15.9199c0.3501,5.9401-0.1899,11.9501,0.66,17.87
		c-0.61,0.8301-1.22,1.66-1.83,2.4901c-34.9701-14.9601-67.63-35.4601-95.9401-60.8701c-47.65-42.51-82.02-98.74-101.74-159.23
		c-7.79-24.17-13.7-49.03-16.42-74.3c-3.91-42.5099,1.54-85.91,16.3-125.99c15.13-41.49,39.69-79.19,69.74-111.4
		c12.96-13.73,26.24-27.25,41.02-39.04c25.13-20.07,53.39-36.36,83.64-47.36C1143.39,447.56,1153.92,444.2,1164.86,443.83z"/>
	<path fill="#3D3532" stroke="#3D3532" stroke-width="0.5" d="M1207.86,451.36c8.09-8.05,20.37-8.61,31.12-8.5
		c11.1,0.74,22.38,1.24,33.05,4.74c31.23,9.5,60.34,25.32,86.51,44.71c15.4399,11.43,29.3999,24.7,42.6499,38.56
		c24.0601,24.66,44.9501,52.55,60.76,83.2c27.01,51.79,38.1101,111.85,30.53,169.83c-5.21,36.14-15.7,71.5099-30.63,104.83
		c-14.8099,32.95-34.2,63.92-58.1,91.06c-33.91,38.78-76.9399,69.32-124.28,89.5001c-0.65-0.8501-1.26-1.7001-1.85-2.54
		c1.21-9.8,0.5601-19.76,1.46-29.6c1.0901-0.9601,1.3201-2.0701,0.67-3.34c0.24-0.1801,0.74-0.54,0.98-0.7201
		c1.59-0.0299,2.35-0.84,2.29-2.4199c1.74-2.02,3.63-3.92,5.65-5.66c1.63,0.04,2.3999-0.76,2.3199-2.39c0.49-0.52,1-1.02,1.53-1.5
		c3.49-2.61,6.36-5.93,8.83-9.51c0.04-0.04,0.12-0.13,0.17-0.18c3.21-2.42,5.9-5.47,7.85-9c0.3101-0.42,0.65-0.82,1.02-1.2
		c2.2-1.34,3.66-3.42,4.83-5.66c0.4-0.6,0.8101-1.18,1.23-1.75c1.8501,0.06,3-1.74,3.1801-3.39l0.15-0.5
		c0.1599-0.24,0.49-0.74,0.65-0.99c1.6599-0.24,3.5299-1.73,2.83-3.59c0.47-0.49,0.96-0.97,1.47-1.44c0.38-0.49,1.14-1.45,1.52-1.94
		c0.39-0.6899,0.8101-1.36,1.25-2.02c1.88,0.23,2.8199-1.6,2.5-3.24c0.26-0.34,0.78-1.02,1.04-1.36c1.48-0.29,2.13-1.18,1.95-2.68
		c0.34-0.51,1.03-1.53,1.37-2.05c0.04-0.07,0.14-0.21,0.1901-0.29c9.95-14.65,18.86-29.98,26.9199-45.74
		c8.02-14.97,12.48-31.47,17.5-47.6c8.01-27.56,14.5801-55.64,17.8401-84.19c0.47-20.88-0.8201-41.78-2.54-62.58
		c-2.39-27.21-5.97-54.31-10.8101-81.18c-7.95,3.25-16.34,5.17-24.74,6.77c-23.08,4.34-46.4399,7-69.78,9.43
		c-26.95,2.75-53.9399,4.9-80.96,6.76c0.37-21.34-0.5499-42.72,0.78-64.03c0.08-50.66,0.13-101.33,0.26-152
		C1208.95,454.36,1208.46,452.83,1207.86,451.36z"/>
	<path fill="#F1D4A8" stroke="#F1D4A8" stroke-width="0.5" d="M460.15,457.07c15.13-4.78,31.99-0.28,44.59,8.85
		c8.2,5.8,14.1,14.06,20.23,21.87c0.83,1.5,2.72,1.12,4.13,1.38c7.58,0.67,15.45,3.36,20.56,9.25c6.02,6.7,11.34,14.07,16.15,21.67
		c3.27,11.67,4.76,23.79,5.76,35.84c0.85,12.55,0.69,25.44-3,37.58c-2.36,8.93-10.66,15.13-11.96,24.47
		c-0.3,4.35-1.31,9.73,2.13,13.16c-0.21,0.36-0.62,1.1-0.82,1.46c-0.42,0.33-1.26,0.98-1.68,1.3c-1.52-0.05-2.35,0.68-2.49,2.2
		c-0.73,0.73-1.46,1.46-2.19,2.2c-0.06,0.06-0.19,0.18-0.26,0.25c-2.44,2.15-4.94,4.24-7.18,6.61c-1.89-0.85-3.82,0.95-3.11,2.9
		c-1.55,1.36-2.99,2.83-4.44,4.3c-0.05,0.05-0.16,0.16-0.21,0.21c-11.14,10.7-21.88,21.91-31.35,34.12
		c-1.25,0.42-1.94,1.29-2.06,2.61c-0.8,1.01-1.6,2-2.35,3.06c-0.05,0.07-0.15,0.21-0.21,0.29c-0.45,0.66-1.36,1.98-1.81,2.64
		c-0.06,0.08-0.17,0.2401-0.22,0.32c-0.35,0.51-1.04,1.53-1.39,2.04c-1.25,0.48-1.88,1.39-1.89,2.75c-1.55,2.47-3.03,5-4.39,7.59
		l-0.53,1.04c-3.2-6.16-6.15-12.44-7.81-19.2c-2.86-4.94-5.32-10.1-8.03-15.11c-1.03-1.66-2.03-3.42-3.88-4.25
		c-9.65-5.53-19.2-11.24-28.36-17.55c-2.01-1.35-3.87-3.06-6.27-3.65c-1.31-0.69-2.37-1.75-3.62-2.51
		c-5.39-2.98-9.76-7.47-13.77-12.07c-6.32-6.91-11.72-14.57-17.1-22.21c-7.85-11.07-14.47-22.99-19.41-35.64
		c-3.95-5.8701-4.99-13-5.41-19.91c-0.07-9.36,3.98-18.86,11.21-24.91c-1.83-8.84,2.89-17.52,8.39-24.11
		c3.99-2.26,7.68-5.03,11.77-7.13c1.6-0.6,3.19-1.21,4.83-1.74c-0.32-0.14-0.94-0.43-1.25-0.58c-0.22-3.07-0.49-6.39,0.99-9.22
		c4.01-6.06,9.95-10.46,16.51-13.46c3.9-1.69,7.75-3.72,12.06-4.11c2.79-0.46,6.58-0.7,7.78-3.77
		C450.9,462.93,455.26,459.18,460.15,457.07 M461.73,476.02c3.19,2.13,6.89,3.24,10.22,5.11c10.78,5.92,20.51,13.63,29.25,22.26
		c-1.53,1.42-3.16,2.74-4.94,3.85c-7.45,5.17-14.48,10.99-20.51,17.79c-3.74-2.08-6.6-5.33-10.05-7.8101
		c-9.33-7.06-18.98-14.35-30.43-17.54c-4.96-1.21-10.19-2.58-15.28-1.26c17.86,3.71,34.75,12.09,48.41,24.2
		c1.71,1.61,3.49,3.26,4.56,5.4c-1.03,4.1-3.68,8.41-1.47,12.65c2.98,5.11,8.9,7.35,14.42,8.52c0.09,6.21-0.7,12.43-2.32,18.43
		c-1.49,5.14-3.88,10.51-8.73,13.29c-3.27,2.41-7.57,2.4901-10.94,4.66c5.05,0.62,10.48,0.14,14.71-2.95
		c5.83-3.82,8.27-10.78,9.7-17.29c2.98-0.77,5.96-1.57,8.94-2.37c-1.87,4.58-4.21,8.98-5.61,13.75c-3.9,12.73-4.21,26.79,0.15,39.44
		c0.71-5.03-0.1-10.11,0.32-15.16c0.68-9.71,2.54-19.43,6.45-28.38c6.43-15.82,18.72-28.8,33.31-37.44
		c-2.9,0.25-5.54,1.49-8.23,2.48c-8.36,2.95-16.86,5.59-25.59,7.18c-5.53,0.92-11.37,1.57-16.78-0.28
		c-3.79-1.32-6.41-5.58-5.34-9.56c1.24-5.07,4.39-9.45,7.79-13.32c7.36-8.02,15.93-14.85,24.94-20.9c1.71-1.13,3.25-2.48,4.61-4
		c-3.52,1.07-6.4,3.42-9.47,5.34c-3.16-2.8-5.81-6.1-8.93-8.94c-6.39-6.04-14.26-10.19-22.18-13.82
		C469.19,477.84,465.62,476.2,461.73,476.02 M399.76,532.93c3.3,2.35,7.09,3.83,10.65,5.73c8.58,4.35,16.69,9.66,24,15.9301
		c11.03,8.98,19.73,21.2,23.09,35.1299c1.3,5.53-1.18,11.7401-6.19,14.55c-6.97,4.01-15.54,4.66-23.28,2.88
		c-4.24-0.89-8.66-4.36-8.19-9.12c-0.02-1.92,0.28-5.55,3.05-4.94c3.06,1.15,5.55,3.39,8.45,4.87c-2.31-4.33-6.68-6.9-10.47-9.78
		c-5.02-3.28-10.09-6.83-15.99-8.29c4.08,3.98,9.11,6.87,12.86,11.22c-1.52,4.71-2.45,10.75,1.69,14.47
		c6.9,5.48,16.38,4.76,24.66,4.25c6.5-0.35,13.1-3.46,16.4-9.27c2.49-5.14,2.81-11.33,0.72-16.67
		c-5.72-16.33-18.33-29.41-32.82-38.41C419.39,540.25,410,535.16,399.76,532.93z"/>
	<path fill="#E5BC84" stroke="#E5BC84" stroke-width="0.5" d="M461.73,476.02c3.89,0.18,7.46,1.82,10.98,3.33
		c7.92,3.63,15.79,7.78,22.18,13.82c3.12,2.84,5.77,6.14,8.93,8.94c3.07-1.92,5.95-4.27,9.47-5.34c-1.36,1.52-2.9,2.87-4.61,4
		c-9.01,6.05-17.58,12.88-24.94,20.9c-3.4,3.87-6.55,8.25-7.79,13.32c-1.07,3.98,1.55,8.24,5.34,9.56
		c5.41,1.85,11.25,1.2,16.78,0.28c8.73-1.59,17.23-4.23,25.59-7.18c2.69-0.9901,5.33-2.23,8.23-2.48
		c-14.59,8.64-26.88,21.62-33.31,37.44c-3.91,8.95-5.77,18.67-6.45,28.38c-0.42,5.05,0.39,10.13-0.32,15.16
		c-4.36-12.65-4.05-26.71-0.15-39.44c1.4-4.77,3.74-9.17,5.61-13.75c-2.98,0.8-5.96,1.6-8.94,2.37c-1.43,6.51-3.87,13.47-9.7,17.29
		c-4.23,3.09-9.66,3.57-14.71,2.95c3.37-2.17,7.67-2.25,10.94-4.66c4.85-2.78,7.24-8.15,8.73-13.29c1.62-6,2.41-12.22,2.32-18.43
		c-5.52-1.17-11.44-3.41-14.42-8.52c-2.21-4.24,0.44-8.55,1.47-12.65c-1.07-2.14-2.85-3.79-4.56-5.4
		c-13.66-12.11-30.55-20.49-48.41-24.2c5.09-1.32,10.32,0.05,15.28,1.26c11.45,3.19,21.1,10.48,30.43,17.54
		c3.45,2.48,6.31,5.73,10.05,7.8101c6.03-6.8,13.06-12.6201,20.51-17.79c1.78-1.11,3.41-2.43,4.94-3.85
		c-8.74-8.63-18.47-16.34-29.25-22.26C468.62,479.26,464.92,478.15,461.73,476.02 M489.21,549.37c-0.22,4.16-0.29,8.33-0.14,12.5
		c3.27-0.47,6.68-0.67,9.71-2.1c1.56-1.11,2.47-2.87,3.58-4.38c2.05-3.17,4.7-5.88,6.81-9
		C502.65,548.13,495.98,549.39,489.21,549.37z"/>
	<path fill="#E5BC84" stroke="#E5BC84" stroke-width="0.5" d="M399.76,532.93c10.24,2.23,19.63,7.32,28.63,12.55
		c14.49,9,27.1,22.08,32.82,38.41c2.09,5.34,1.77,11.53-0.72,16.67c-3.3,5.81-9.9,8.92-16.4,9.27c-8.28,0.51-17.76,1.23-24.66-4.25
		c-4.14-3.72-3.21-9.76-1.69-14.47c-3.75-4.35-8.78-7.24-12.86-11.22c5.9,1.46,10.97,5.01,15.99,8.29
		c3.79,2.88,8.16,5.45,10.47,9.78c-2.9-1.48-5.39-3.72-8.45-4.87c-2.77-0.61-3.07,3.02-3.05,4.94c-0.47,4.7599,3.95,8.23,8.19,9.12
		c7.74,1.78,16.31,1.13,23.28-2.88c5.01-2.81,7.49-9.02,6.19-14.55c-3.36-13.93-12.06-26.15-23.09-35.1299
		c-7.31-6.27-15.42-11.58-24-15.9301C406.85,536.76,403.06,535.28,399.76,532.93z"/>
	<path fill="#F1D4A8" stroke="#F1D4A8" stroke-width="0.5" d="M489.21,549.37c6.77,0.02,13.44-1.24,19.96-2.98
		c-2.11,3.12-4.76,5.83-6.81,9c-1.11,1.51-2.02,3.27-3.58,4.38c-3.03,1.43-6.44,1.63-9.71,2.1
		C488.92,557.7,488.99,553.53,489.21,549.37z"/>
	<path fill="#9A3265" stroke="#9A3265" stroke-width="0.5" d="M557.92,632.6c3.01-1.86,5.62-4.58,9.2-5.31
		c33.14,66.15,69.39,130.81,109.76,192.83c23.96,36.36,49.27,71.99,78.45,104.39c4.99,5.71,10.68,10.81,15.06,17.04
		c10.26,14.09,20.25,28.41,30.7,42.34c35.22,20.39,71.02,39.81,106.89,59.04c45,24.23,91.29,46.0299,138.41,65.8099
		c1.92-1.7,4.3199,0.83,6.46,0.0701c21.42-6.9,43.17-12.9,65.25-17.3101c-11.36,15.4-22.63,30.95-31.76,47.8199
		c-7.65,14.66-15.36,29.76-18,46.26c8.99,5.2301,18.41,9.66,27.6,14.54c6.51,3.98,13.7301,6.6901,20.04,11.04
		c-5.4399,8.6799-12.0499,16.5499-17.88,24.97c-2.97,4.37-6.6699,8.3-9.09,13.03c-0.23,3.08,2.14,5.64,3.5,8.26
		c10.1899,17.58,22.4299,33.95,36.2,48.88c7.39,7.2899,14.54,14.83,22.14,21.9299c13.13,11.6901,27.0801,22.49,41.78,32.14
		c4.88,2.83,9.33,6.42,14.49,8.77c-1.6899-3.83-3.83-7.46-5.13-11.4501c1.98,2.26,3.98,4.51,5.63,7.05
		c0.78,9.39,0.22,18.84,0.37,28.26c0.04,43.15-0.01,86.3-0.01,129.45c-3.79,1.3201-7.36,3.67-8.96,7.51
		c-4.15,8.8301-4.15,19.8201,0.74,28.36c1.6799,3.2201,4.97,4.9601,8.24,6.1901c-0.02,18.66-0.01,37.3199-0.01,55.98
		c-4.14,1.26-7.71,4.1-9.3099,8.2c-4,9.0801-3.7201,20.3701,1.83,28.76c1.64,2.6801,4.63,3.92,7.42,5.0801
		c0.1799,64.99,0.0199,129.97,0.0599,194.96c-0.35,1.8101-0.7,3.64-1.05,5.49c-7.33,39.97-14.4299,79.98-21.7999,119.9401
		c-49.63-3.0601-97.33-19.52-142.24-40.03c-0.91,0.2-1.8,0.42-2.6801,0.67c-19.52-11.9401-40.1899-21.8501-59.62-33.9301
		c-0.75-0.4401-2.24-1.3199-2.98-1.76c3.53-22.96,7.4-45.87,11.12-68.8c3.13-18.22,5.56-36.5599,9.58-54.61
		c9.5-44.49,13.04-90.0399,13.74-135.47c0.44-32.36-0.66-64.74-3.12-97.01c-0.92-10.3199-1.19-20.8099-4.14-30.8099
		c-1.91-4.9701-6.21-8.4501-9.13-12.79c-23.91-32.16-37.03-70.98-44.99-109.9c-5.46-26.6-7.95-53.7-9.37-80.78
		c-4.25-4.12-9.33-7.33-13.9-11.1c-50.36-38.98-100.74-77.9399-151.1-116.9299c-12.23-9.3301-23.35-19.99-34.38-30.6901
		c-15.22-14.8099-29.53-30.58-42.6-47.33c-47.62-62.7001-88.03-130.57-124.86-200.07c-21.83-41.52-42.39-83.73-61.3199-126.65
		c-4.82-11.28-8.53-23.01-14-34c-4.31-7.84-8.24-15.88-12.24-23.87c-0.55-1.29-1.36-2.6-1.2-4.04c0.55-5.31,2.82-10.22,4.98-15.03
		c1.36-2.59,2.84-5.12,4.39-7.59c1.47-0.34,2.1-1.26,1.89-2.75c0.35-0.51,1.04-1.53,1.39-2.04c0.05-0.08,0.16-0.24,0.22-0.32
		c0.45-0.66,1.36-1.98,1.81-2.64c0.06-0.08,0.16-0.22,0.21-0.29c0.75-1.06,1.55-2.05,2.35-3.06c1.52-0.22,2.2-1.09,2.06-2.61
		c9.47-12.21,20.21-23.42,31.35-34.12c0.05-0.05,0.16-0.16,0.21-0.21c1.45-1.47,2.89-2.94,4.44-4.3c1.27-0.7,2.32-1.69,3.11-2.9
		c2.24-2.37,4.74-4.46,7.18-6.61c0.07-0.07,0.2-0.19,0.26-0.25c0.73-0.74,1.46-1.47,2.19-2.2c1.33-0.18,2.16-0.91,2.49-2.2
		C556.66,633.58,557.5,632.93,557.92,632.6 M1029.2,1767.16c-1.99,7.15-3.5599,14.4199-5.1,21.6899
		c5.75,3.8301,12.49,5.73,18.97,7.98C1082.39,1809.03,1122.4,1818.9,1162.4,1828.58c2.12,0.8501,2.39-1.95,3-3.2799
		c2.03-6.7201,4.59-13.28,6.47-20.05c-24.71-4.62-49.08-10.88-73.24-17.8C1075.33,1781.24,1052.3101,1773.99,1029.2,1767.16z"/>
	<path opacity="0.87" fill="#CEB18F" stroke="#CEB18F" stroke-width="0.5" enable-background="new    " d="M553.75,636.1
		c0.14-1.52,0.97-2.25,2.49-2.2C555.91,635.19,555.08,635.92,553.75,636.1z"/>
	<path opacity="0.76" fill="#996A69" stroke="#996A69" stroke-width="0.5" enable-background="new    " d="M551.3,638.55
		c0.07-0.07,0.2-0.19,0.26-0.25C551.5,638.36,551.37,638.48,551.3,638.55z"/>
	<path opacity="0.88" fill="#D0B391" stroke="#D0B391" stroke-width="0.5" enable-background="new    " d="M541.01,648.06
		c-0.71-1.95,1.22-3.75,3.11-2.9C543.33,646.37,542.28,647.36,541.01,648.06z"/>
	<path fill="#F1D4A8" stroke="#F1D4A8" stroke-width="0.5" d="M1031.84,648.38c10.89,5.46,23.24,6.84,35.0701,9.16
		c46.7,7.46,93.9199,11.05,141.0699,14.46c-0.03,34.66,0.12,69.33-0.0599,103.99c-0.8,0.19-2.39,0.57-3.1901,0.76
		c-12.16-0.78-23.6899-5.37-35.73-7.01c-25.08-4.43-50.6-5.43-76.02-5.24c-21.5,0.11-43.2999,0.68-64.15,6.42
		c-1.88,0.97-4.1599,2.61-3.6799,5.03c0.38,5.03,0.58,10.06,0.75,15.1c0.5499,6.8,7.35,10.46,9.78,16.43
		c3.9099,9.55,7.0299,19.56,12.59,28.34c3.53,5.59,9.6899,8.7,15.9299,10.26c25.37,6.69,51.9401,5.27,77.8201,3.05
		c9.3199-1.08,19.09-2,27.37-6.8c7.38-4.28,11.91-11.89,15.73-19.25c3.8199-7.3,5.95-15.31,9.16-22.86
		c2.26-5.35,8.5699-6.6899,13.7899-6.8c-0.2699,31.17,0.17,62.35-0.1899,93.52c-9.9301,2.42-19.97,4.4-29.8,7.19
		c1.8101,5.7,7.16,9.03,12.2101,11.58c5.5599,2.87,11.61,4.54,17.5599,6.39c0.3301,10.97,0.03,21.95,0.15,32.9301
		c-0.13,6.81,0.42,13.65-0.46,20.43c-2.9401-4.92-6.8401-9.97-12.5701-11.64c-3.84-1.29-7.53,0.91-11.0699,2.09
		c-10.05,3.61-21.12,5.35-31.65,2.92c-4.1801-0.92-7.9399-3.03-11.74-4.88c3.1799,6.2,9.88,8.64,15.41,12.11
		c14.1,13.06,33.1699,19.66,52.14,20.96c-0.0601,1.99-0.1101,3.99-0.15,6c-7.6801,0.24-14.85-2.62-22.2101-4.25
		c5.15,7.1,14.2201,9.1,22.1801,11.37c0.2,27.92,0.14,55.84,0.0599,83.77c-15.74-8.39-30.6899-18.23-45.1499-28.67
		c-4.4401-3.13-8.36-7-13.23-9.49c3.2799,6.38,7.8199,11.99,11.62,18.0601c33.5699,49.46,66.97,99.0199,100.47,148.5299
		c1.49,2.17,2.8099,4.4501,4.09,6.77c-6.09,26.13-14.13,51.79-23.53,76.92c-22.8099-0.04-45.61-0.0601-68.4099,0.01
		c-24.14-64.01-38.62-132.36-36.4-200.99c1.0599-4.0801,0.58-8.3101,0.6799-12.4601c0.28-4.88,0.7201-9.74,1.3-14.59
		c-0.26-0.29-0.76-0.89-1.01-1.1801c-0.85-5.9199-0.3099-11.9299-0.66-17.87c-0.37-5.34,0.5701-11.11-2.2899-15.9199
		c-0.42-1.1901-1.2301-1.97-2.41-2.3401c-1.8201-1.98-3.74-3.85-5.77-5.58c-0.34-1.24-1.12-2.03-2.3199-2.37
		c-1.7301-2.06-3.5801-4-5.5901-5.76c-0.3999-1.16-1.1499-1.96-2.26-2.39c-0.6399-0.75-1.2599-1.47-1.8899-2.1801
		c-0.4901-1.33-1.3301-2.31-2.53-2.95c-0.4401-0.46-0.86-0.89-1.28-1.31c-1.87-2.2-3.71-4.41-5.66-6.52
		c-0.08-0.08-0.23-0.26-0.3099-0.35c-1.5701-1.9301-3.1901-3.8-4.8101-5.67c-0.13-0.19-0.38-0.56-0.51-0.75
		c-0.87-1.36-1.96-2.53-3.0299-3.67c-9.26-11.36-17.87-23.26-25.37-35.85c-8.2401-13.8-16.5901-27.67-22.3201-42.7401
		c-8.59-22.1-15.28-44.9-20.75-67.95c-5.53-22.5-8.21-45.61-8.97-68.7401c-1.24-40.78,2.33-81.74,10.35-121.74
		C1030.83,652.32,1031.63,650.41,1031.84,648.38 M1046.79,725.3c4.72,0.56,9.3999,1.48,14.09,2.36
		c39.66,7.72,79.3199,17.44,116.2,34.3c-6.45-13.45-19.86-21.72-33.39-26.72c-21.9099-7.99-45.4199-10.22-68.5699-10.86
		C1065.6801,724.43,1056.14,723.88,1046.79,725.3z"/>
	<path fill="#E5BC84" stroke="#E5BC84" stroke-width="0.5" d="M1358.72,655.81c8.4-1.6,16.79-3.52,24.74-6.77
		c4.8401,26.87,8.42,53.97,10.8101,81.18c1.72,20.8,3.01,41.7,2.54,62.58c-3.26,28.55-9.8301,56.63-17.8401,84.19
		c-5.02,16.13-9.48,32.63-17.5,47.6c-8.0599,15.7599-16.97,31.09-26.9199,45.74c-0.05,0.08-0.15,0.22-0.1901,0.29
		c-0.34,0.52-1.03,1.54-1.37,2.05c-1.26,0.44-1.91,1.34-1.95,2.68c-0.26,0.34-0.78,1.02-1.04,1.36c-1.21,0.75-2.05,1.9-2.5,3.24
		c-0.4399,0.66-0.86,1.33-1.25,2.02c-0.38,0.4901-1.14,1.45-1.52,1.94c-0.51,0.47-1,0.95-1.47,1.44
		c-1.23,0.95-2.0701,2.26-2.83,3.59c-0.16,0.25-0.4901,0.75-0.65,0.99l-0.15,0.5c-1.59,0.49-2.3199,2.13-3.1801,3.39
		c-0.4199,0.57-0.83,1.15-1.23,1.75c-1.6899,1.82-3.2999,3.71-4.83,5.66c-0.37,0.38-0.71,0.78-1.02,1.2c-2.66,2.96-5.35,5.91-7.85,9
		c-0.05,0.05-0.13,0.14-0.17,0.18c-3.0599,3.06-5.89,6.34-8.83,9.51c-0.53,0.48-1.04,0.98-1.53,1.5
		c-1.1799,0.4-1.96,1.2-2.3199,2.39c-2.02,1.74-3.91,3.64-5.65,5.66c-1.23,0.37-2,1.1699-2.29,2.4199
		c-0.24,0.1801-0.74,0.54-0.98,0.7201l-0.64,0.3899c-0.01,0.74-0.02,2.2101-0.03,2.9501c-0.8999,9.84-0.25,19.7999-1.46,29.6
		c-0.24,0.33-0.71,0.98-0.95,1.3101c0.51,4.85,0.97,9.71,1.24,14.59c0.1,4.1-0.39,8.2899,0.7,12.3199
		c1.35,41.73-3.53,83.49-12.87,124.14c-1.28-2.3199-2.6-4.6-4.09-6.77c-33.5-49.51-66.9-99.0699-100.47-148.5299
		c-3.8-6.0701-8.3401-11.6801-11.62-18.0601c4.87,2.49,8.7899,6.36,13.23,9.49c14.46,10.4401,29.4099,20.28,45.1499,28.67
		c0.0801-27.9301,0.14-55.85-0.0599-83.77c-7.96-2.27-17.03-4.27-22.1801-11.37c7.3601,1.63,14.53,4.49,22.2101,4.25
		c0.0399-2.01,0.09-4.01,0.15-6c18.1899-1.33,36.59-7.36,50.3999-19.6c3.5701-3.04,8.3501-4.02,12.0601-6.86
		c2.4399-1.69,4.29-4.05,5.9299-6.5c-7.2,3.9-15.25,6.43-23.5199,5.87c-9.41-0.01-18.1801-3.61-26.9801-6.38
		c-8.3199-0.65-13.84,7.12-17.46,13.56c-0.33-0.56-0.65-1.11-0.95-1.65c0.88-6.78,0.33-13.62,0.46-20.43
		c-0.12-10.98,0.1801-21.96-0.15-32.9301c-5.95-1.85-12-3.52-17.5599-6.39c-5.05-2.55-10.4-5.88-12.2101-11.58
		c9.8301-2.79,19.87-4.77,29.8-7.19c0.36-31.17-0.08-62.35,0.1899-93.52c5.5601-0.18,12.7201,0.42,15.39,6.19
		c3.39,7.29,5.88,15,9.74,22.08c3.87,7.12,8.2001,14.6,15.39,18.84c7.77,4.53,16.9401,5.47,25.7101,6.53
		c14.87,1.23,29.86,1.88,44.76,0.64c9.96-0.43,19.95-1.39,29.73-3.41c7.3099-1.81,15.35-4.14,19.96-10.59
		c5.6899-8.06,8.74-17.58,12.21-26.72c1.51-4.15,4.05-7.8,6.7001-11.29c1.46-2.01,3.23-4.04,3.33-6.66
		c0.42-4.67,0.8-9.36,0.6901-14.05c0.08-2.6-2.01-4.4-3.4-6.33c-23.74-6.86-48.76-6.78-73.27-6.46c-11.41-0.2-22.65,2.15-34.04,2.18
		c-10.37,0.64-20.7,2.03-30.9099,3.87c-5.27,1.29-10.4,3.07-15.76,3.95c-9.8201,1.67-19.42,6.49-29.5701,4.56
		c0.8-0.19,2.39-0.57,3.1901-0.76c0.1799-34.66,0.0299-69.33,0.0599-103.99c27.02-1.86,54.01-4.01,80.96-6.76
		C1312.28,662.81,1335.64,660.15,1358.72,655.81 M1277.71,734.72c-14.0299,4.9901-28.11,13.3101-34.7799,27.22
		c22.74-10.56,46.7899-17.97,71-24.3c19.5499-4.91,39.2799-9.22,59.1899-12.39c-6.96-1.15-14.0699-0.76-21.1-0.94
		C1326.98,724.49,1301.52,726.44,1277.71,734.72z"/>
	<path opacity="0.75" fill="#A0796E" stroke="#A0796E" stroke-width="0.5" enable-background="new    " d="M536.36,652.57
		c0.05-0.05,0.16-0.16,0.21-0.21C536.52,652.41,536.41,652.52,536.36,652.57z"/>
	<path opacity="0.84" fill="#A0626C" stroke="#A0626C" stroke-width="0.5" enable-background="new    " d="M502.95,689.3
		c0.12-1.32,0.81-2.19,2.06-2.61C505.15,688.21,504.47,689.08,502.95,689.3z"/>
	<path opacity="0.77" fill="#AC8C77" stroke="#AC8C77" stroke-width="0.5" enable-background="new    " d="M500.39,692.65
		c0.06-0.08,0.16-0.22,0.21-0.29C500.55,692.43,500.45,692.57,500.39,692.65z"/>
	<path opacity="0.75" fill="#9C726B" stroke="#9C726B" stroke-width="0.5" enable-background="new    " d="M498.36,695.61
		c0.05-0.08,0.16-0.24,0.22-0.32C498.52,695.37,498.41,695.53,498.36,695.61z"/>
	<path opacity="0.85" fill="#A86E72" stroke="#A86E72" stroke-width="0.5" enable-background="new    " d="M495.08,700.4
		c0.01-1.36,0.64-2.27,1.89-2.75C497.18,699.14,496.55,700.06,495.08,700.4z"/>
	<path fill="#2C3D4D" stroke="#2C3D4D" stroke-width="0.5" d="M1046.79,725.3c9.35-1.42,18.89-0.87,28.33-0.92
		c23.15,0.64,46.66,2.87,68.5699,10.86c13.53,5,26.9401,13.27,33.39,26.72c-36.88-16.86-76.5399-26.58-116.2-34.3
		C1056.1899,726.78,1051.51,725.86,1046.79,725.3z"/>
	<path fill="#2C3D4D" stroke="#2C3D4D" stroke-width="0.5" d="M1277.71,734.72c23.8101-8.28,49.27-10.23,74.3101-10.41
		c7.03,0.18,14.14-0.21,21.1,0.94c-19.91,3.17-39.64,7.48-59.1899,12.39c-24.2101,6.33-48.26,13.74-71,24.3
		C1249.6,748.03,1263.6801,739.71,1277.71,734.72z"/>
	<path fill="#453F3F" stroke="#453F3F" stroke-width="0.5" d="M1280.97,764.37c11.39-0.03,22.63-2.38,34.04-2.18
		c24.51-0.32,49.53-0.4,73.27,6.46c1.39,1.93,3.48,3.73,3.4,6.33c0.11,4.69-0.27,9.38-0.6901,14.05c-0.1,2.62-1.87,4.65-3.33,6.66
		c-2.65,3.49-5.1901,7.14-6.7001,11.29c-3.47,9.14-6.52,18.66-12.21,26.72c-4.61,6.45-12.65,8.78-19.96,10.59
		c-9.78,2.02-19.77,2.98-29.73,3.41c-14.9,1.24-29.89,0.59-44.76-0.64c-8.77-1.06-17.9401-2-25.7101-6.53
		c-7.1899-4.2401-11.52-11.72-15.39-18.84c-3.86-7.08-6.35-14.79-9.74-22.08c-2.6699-5.77-9.83-6.37-15.39-6.19
		c-5.22,0.11-11.5299,1.45-13.7899,6.8c-3.2101,7.55-5.3401,15.5601-9.16,22.86c-3.8199,7.36-8.35,14.97-15.73,19.25
		c-8.28,4.8-18.05,5.72-27.37,6.8c-25.88,2.22-52.4501,3.64-77.8201-3.05c-6.24-1.56-12.3999-4.67-15.9299-10.26
		c-5.5601-8.78-8.6801-18.79-12.59-28.34c-2.4301-5.97-9.2301-9.63-9.78-16.43c-0.17-5.04-0.37-10.07-0.75-15.1
		c-0.48-2.42,1.7999-4.06,3.6799-5.03c20.8501-5.74,42.65-6.31,64.15-6.42c25.42-0.19,50.9401,0.81,76.02,5.24
		c12.04,1.64,23.5699,6.23,35.73,7.01c10.15,1.93,19.75-2.89,29.5701-4.56c5.36-0.88,10.49-2.66,15.76-3.95
		C1260.27,766.4,1270.6,765.01,1280.97,764.37 M1298.5601,767.93c-15.63,1.28-31.41,2.3-46.7201,5.94
		c-5.49,1.7-11.63,2.88-15.83,7.11c-4.3201,4.48-3.89,11.25-3.23,16.96c1.73,10.64,5.4,21.04,11.08,30.22
		c3.84,6.29,10.09,11.04,17.29,12.77c13.02,3.18,26.51,3.93,39.88,3.83c10.99,0.14,21.99-0.48,32.89-2.02
		c8.73-1.29,17.99-2.15,25.5199-7.23c6.02-4.03,9.17-10.9,11.4601-17.52c3.95-11.57,5.77-23.82,5.88-36.02
		c0.2999-4.42-2.4-8.84-6.6801-10.2c-14.49-5.12-30.0499-4.16-45.14-4.81C1316.17,767.57,1307.34,767.13,1298.5601,767.93
		 M1073.5699,769.94c-9.0399,0.71-18.3199,1.39-26.7699,4.9c-4.6101,2.05-6.3,7.44-5.99,12.14c0.7999,14,3.21,28.16,9.33,40.89
		c2.41,5.53,6.26,10.74,12.04,13.02c10.3099,4.3,21.6699,4.97,32.6599,6.22c15.4301,1.15,30.9301,0.11,46.26-1.82
		c9.36-1.28,19.3101-2.36,27.22-8.02c5.9901-4.87,9.1901-12.15,12.04-19.11c3.4-9.28,5.87-19.21,5-29.15
		c-0.4299-4.89-4.24-8.84-8.67-10.55c-8.24-3.2401-17.0499-4.61-25.7699-5.87C1125.33,768.87,1099.36,769.07,1073.5699,769.94z"/>
	<path fill="#E5BC84" stroke="#E5BC84" stroke-width="0.5" d="M1298.5601,767.93c8.7799-0.8,17.61-0.36,26.3999-0.97
		c15.0901,0.65,30.65-0.31,45.14,4.81c4.28,1.36,6.98,5.78,6.6801,10.2c-0.11,12.2-1.9301,24.45-5.88,36.02
		c-2.29,6.62-5.4401,13.49-11.4601,17.52c-7.5299,5.08-16.7899,5.94-25.5199,7.23c-10.9,1.54-21.9,2.16-32.89,2.02
		c-13.37,0.1-26.86-0.65-39.88-3.83c-7.2001-1.73-13.4501-6.48-17.29-12.77c-5.6799-9.18-9.35-19.58-11.08-30.22
		c-0.66-5.71-1.0901-12.48,3.23-16.96c4.2-4.23,10.34-5.41,15.83-7.11C1267.15,770.23,1282.9301,769.21,1298.5601,767.93
		 M1260.14,793.87c0.38-0.08,1.14-0.23,1.51-0.31c-6.15,5.54-12.28,11.26-16.63,18.4c9.74,3.89,20.02,6.08,30.22,8.38
		c0.28,0.22,0.85,0.66,1.13,0.87c5.8199,1.22,11.72,1.98,17.67,2.1c16.5299,0.52,34.02-1.87,47.97-11.38
		c13.34-9.11,24.26-21.42,32.99-34.94c-18.54-4.94-37.92-7.26-57.08-5.89C1297.09,773.04,1276.26,780.26,1260.14,793.87z"/>
	<path fill="#F1D4A8" stroke="#F1D4A8" stroke-width="0.5" d="M1073.5699,769.94c25.79-0.87,51.76-1.07,77.3501,2.65
		c8.72,1.2599,17.5299,2.6299,25.7699,5.87c4.4301,1.71,8.2401,5.66,8.67,10.55c0.87,9.94-1.6,19.87-5,29.15
		c-2.85,6.96-6.0499,14.2401-12.04,19.11c-7.9099,5.66-17.86,6.74-27.22,8.02c-15.33,1.93-30.83,2.97-46.26,1.82
		c-10.99-1.25-22.35-1.92-32.6599-6.22c-5.78-2.28-9.63-7.49-12.04-13.02c-6.12-12.73-8.53-26.89-9.33-40.89
		c-0.3101-4.7,1.3799-10.09,5.99-12.14C1055.25,771.33,1064.53,770.65,1073.5699,769.94 M1045.01,777.2
		c9.0599,13.52,19.9399,26.14,33.6,35.17c11.59,7.72,25.73,10.49,39.4501,10.96c8.6799,0.16,17.47-0.15,25.9299-2.25
		c-0.24-0.06-0.71-0.17-0.95-0.23c10.6799-2.7599,21.6599-4.65,31.9099-8.9c-4.26-7.09-10.38-12.69-16.34-18.28l1.3,0.46
		c-4.1-4.05-9.1-7.07-14.0701-9.92c-19.33-10.68-41.89-14.88-63.83-13.27C1069.54,771.87,1056.97,773.41,1045.01,777.2z"/>
	<path fill="#2C3D4D" stroke="#2C3D4D" stroke-width="0.5" d="M1045.01,777.2c11.96-3.79,24.53-5.33,37-6.26
		c21.9399-1.61,44.5,2.59,63.83,13.27c4.9701,2.85,9.9701,5.87,14.0701,9.92l-1.3-0.46c-8.8199-3.25-17.97-5.42-27.04-7.79
		c2,3.72,3.52,7.81,3.41,12.1c0.13,8.5-5.12,16.82-12.95,20.21c-7.8201,3.58-17.6901,1.64-23.63-4.55
		c-6.0701-6-8.02-15.61-4.9501-23.54c1.2301-3.5699,3.6901-6.5099,6.28-9.17c-13.01-0.38-26,0.94-38.8199,3.08
		c5.39,14.7,18.1799,25.67,32.51,31.29c15.6699,6.13,32.99,7.58,49.62,5.55c0.24,0.06,0.71,0.17,0.95,0.23
		c-8.46,2.1-17.25,2.41-25.9299,2.25c-13.7201-0.47-27.8601-3.24-39.4501-10.96C1064.95,803.34,1054.0699,790.72,1045.01,777.2
		 M1123.24,788.36c-4.27,1.67-4.27,8.61,0,10.28c3.11,1.41,6.63-1.41,6.74-4.62C1130.51,790.46,1126.76,786.77,1123.24,788.36z"/>
	<path fill="#2C3D4D" stroke="#2C3D4D" stroke-width="0.5" d="M1260.14,793.87c16.12-13.61,36.95-20.83,57.78-22.77
		c19.1599-1.37,38.5399,0.95,57.08,5.89c-8.73,13.52-19.65,25.83-32.99,34.94c-13.95,9.51-31.4401,11.9-47.97,11.38
		c-5.9501-0.12-11.8501-0.88-17.67-2.1c-0.28-0.21-0.85-0.65-1.13-0.87c9.48,1.96,19.3,1.5699,28.87,0.53
		c15.48-1.81,31.08-7.3,42.51-18.22c5.48-5.1801,9.84-11.56,12.47-18.64c-12.8199-2.14-25.8199-3.46-38.83-3.08
		c3.03,3.01,5.7,6.55,6.8199,10.75c2.5901,8.5-0.46,18.4-7.5499,23.8c-7.36,5.95-18.75,5.98-26.0901-0.02
		c-8.97-6.73-10.9099-20.23-5-29.59c-8.99,2.34-18.0399,4.53-26.7899,7.69C1261.28,793.64,1260.52,793.79,1260.14,793.87
		 M1312.23,788.36c-4.27,1.68-4.26,8.61,0.02,10.29c3.09,1.39,6.58-1.39,6.72-4.58C1319.54,790.5,1315.77,786.76,1312.23,788.36z"/>
	<path fill="#FFFFFF" stroke="#FFFFFF" stroke-width="0.5" d="M1060.91,784.01c12.8199-2.14,25.8099-3.46,38.8199-3.08
		c-2.59,2.66-5.0499,5.6-6.28,9.17c-3.0699,7.9301-1.12,17.54,4.9501,23.54c5.9399,6.19,15.8099,8.13,23.63,4.55
		c7.83-3.39,13.08-11.71,12.95-20.21c0.11-4.29-1.41-8.38-3.41-12.1c9.0701,2.37,18.2201,4.54,27.04,7.79
		c5.96,5.59,12.08,11.19,16.34,18.28c-10.25,4.25-21.23,6.14-31.9099,8.9c-16.63,2.03-33.9501,0.58-49.62-5.55
		C1079.09,809.68,1066.3,798.71,1060.91,784.01z"/>
	<path fill="#FFFFFF" stroke="#FFFFFF" stroke-width="0.5" d="M1320.26,780.93c13.01-0.38,26.01,0.94,38.83,3.08
		c-2.63,7.08-6.99,13.46-12.47,18.64c-11.4301,10.92-27.03,16.41-42.51,18.22c-9.5699,1.04-19.39,1.43-28.87-0.53
		c-10.2-2.3-20.48-4.4901-30.22-8.38c4.35-7.14,10.48-12.86,16.63-18.4c8.75-3.16,17.7999-5.35,26.7899-7.69
		c-5.9099,9.36-3.97,22.86,5,29.59c7.3401,6,18.7301,5.97,26.0901,0.02c7.09-5.4,10.14-15.3,7.5499-23.8
		C1325.96,787.48,1323.29,783.94,1320.26,780.93z"/>
	<path fill="#FFFFFF" stroke="#FFFFFF" stroke-width="0.5" d="M1123.24,788.36c3.52-1.59,7.27,2.1,6.74,5.66
		c-0.11,3.21-3.63,6.03-6.74,4.62C1118.97,796.97,1118.97,790.03,1123.24,788.36z"/>
	<path fill="#FFFFFF" stroke="#FFFFFF" stroke-width="0.5" d="M1312.23,788.36c3.54-1.6,7.3101,2.14,6.74,5.71
		c-0.14,3.19-3.63,5.97-6.72,4.58C1307.97,796.97,1307.96,790.04,1312.23,788.36z"/>
	<path fill="#E97954" stroke="#E97954" stroke-width="0.5" d="M1140.51,953.95c3.8,1.85,7.5599,3.96,11.74,4.88
		c10.53,2.43,21.6,0.69,31.65-2.92c3.5399-1.18,7.23-3.3799,11.0699-2.09c5.73,1.67,9.63,6.72,12.5701,11.64
		c0.2999,0.54,0.62,1.09,0.95,1.65l0.6,1c-14.1699,1.61-28.49,1.89-42.65,0.13c13.41,4.32,27.4501,6.68,41.55,6.76
		c-0.05,4-0.04,8.01,0.0701,12.02c-18.9701-1.3-38.04-7.9-52.14-20.96C1150.39,962.59,1143.6899,960.15,1140.51,953.95z"/>
	<path fill="#D47150" stroke="#D47150" stroke-width="0.5" d="M1208.49,967.11c3.62-6.44,9.14-14.21,17.46-13.56
		c8.8,2.77,17.5701,6.37,26.9801,6.38c8.2699,0.56,16.3199-1.97,23.5199-5.87c-1.6399,2.45-3.49,4.81-5.9299,6.5
		c-3.71,2.84-8.49,3.82-12.0601,6.86c-13.8099,12.24-32.21,18.27-50.3999,19.6c-0.1101-4.01-0.1201-8.02-0.0701-12.02
		c14.29,0.3,28.8-1.22,42.1-6.75c-13.61,1.68-27.4099,1.62-41-0.14L1208.49,967.11z"/>
	<path fill="#FFFFFF" stroke="#FFFFFF" stroke-width="0.5" d="M1166.4399,968.24c14.16,1.76,28.4801,1.48,42.65-0.13
		c13.5901,1.76,27.39,1.82,41,0.14c-13.2999,5.53-27.8099,7.05-42.1,6.75C1193.89,974.92,1179.85,972.56,1166.4399,968.24z"/>
	<path opacity="0.78" fill="#736048" stroke="#736048" stroke-width="0.5" enable-background="new    " d="M1334.36,970.62
		c0.04-0.07,0.14-0.21,0.1901-0.29C1334.5,970.41,1334.4,970.55,1334.36,970.62z"/>
	<path opacity="0.8" fill="#635240" stroke="#635240" stroke-width="0.5" enable-background="new    " d="M1331.04,975.35
		c0.0399-1.34,0.6899-2.24,1.95-2.68C1333.17,974.17,1332.52,975.06,1331.04,975.35z"/>
	<path fill="#3D3532" stroke="#3D3532" stroke-width="0.5" d="M1097.05,991.19c1.0699,1.14,2.1599,2.31,3.0299,3.67
		C1097.71,995.64,1095.9399,993.32,1097.05,991.19z"/>
	<path opacity="0.77" fill="#393433" stroke="#393433" stroke-width="0.5" enable-background="new    " d="M1117.0699,1014.59
		c1.1101,0.43,1.8601,1.23,2.26,2.39C1117.64,1017.04,1116.89,1016.24,1117.0699,1014.59z"/>
	<path opacity="0.77" fill="#5E5449" stroke="#5E5449" stroke-width="0.5" enable-background="new    " d="M1124.92,1022.74
		c1.2,0.34,1.98,1.13,2.3199,2.37C1125.63,1025.11,1124.85,1024.3199,1124.92,1022.74z"/>
	<path opacity="0.63" fill="#383029" stroke="#383029" stroke-width="0.5" enable-background="new    " d="M1288.67,1025.01
		c0.36-1.19,1.14-1.99,2.3199-2.39C1291.0699,1024.25,1290.3,1025.05,1288.67,1025.01z"/>
	<path opacity="0.71" fill="#413B36" stroke="#413B36" stroke-width="0.5" enable-background="new    " d="M1133.01,1030.6899
		c1.1799,0.3701,1.99,1.15,2.41,2.3401C1133.78,1033.09,1132.97,1032.3101,1133.01,1030.6899z"/>
	<path opacity="0.68" fill="#372F29" stroke="#372F29" stroke-width="0.5" enable-background="new    " d="M1280.73,1033.09
		c0.29-1.25,1.0601-2.0499,2.29-2.4199C1283.08,1032.25,1282.3199,1033.0601,1280.73,1033.09z"/>
	<path opacity="0.09" fill="#0B0907" stroke="#0B0907" stroke-width="0.5" enable-background="new    " d="M1279.11,1034.2
		l0.64-0.3899c0.65,1.2699,0.42,2.3799-0.67,3.34C1279.09,1036.41,1279.1,1034.9399,1279.11,1034.2z"/>
	<path fill="#B13B75" stroke="#B13B75" stroke-width="0.5" d="M1138.37,1066.8199c0.25,0.29,0.75,0.89,1.01,1.1801
		c-0.58,4.85-1.02,9.71-1.3,14.59c-1.0399,4.0701-1.5,8.29-0.6799,12.4601c-2.22,68.63,12.26,136.98,36.4,200.99
		c7,18.48,14.85,36.6499,23.74,54.3099c1.3099,2.53,2.89,4.9301,4.45,7.34c1.3,3.9901,3.4401,7.6201,5.13,11.4501
		c-5.16-2.35-9.61-5.9401-14.49-8.77c-14.7-9.65-28.65-20.45-41.78-32.14c-7.6-7.1-14.75-14.64-22.14-21.9299
		c-13.77-14.9301-26.01-31.3-36.2-48.88c-1.36-2.62-3.73-5.1801-3.5-8.26c2.42-4.73,6.12-8.66,9.09-13.03
		c5.8301-8.42,12.4401-16.29,17.88-24.97c-6.3099-4.35-13.53-7.0601-20.04-11.04c-9.1899-4.88-18.61-9.3099-27.6-14.54
		c2.64-16.5,10.35-31.6,18-46.26c9.13-16.87,20.4-32.4199,31.76-47.8199c6.2001-7.36,12.0801-14.97,18.4401-22.1899
		C1137.15,1068.48,1137.76,1067.65,1138.37,1066.8199z"/>
	<path fill="#972E62" stroke="#972E62" stroke-width="0.5" d="M1276.67,1068.0601c0.24-0.3301,0.71-0.9801,0.95-1.3101
		c0.59,0.84,1.2,1.6899,1.85,2.54c5.0701,5.84,9.86,11.9199,14.9501,17.75c12.97,17.1699,25.7899,34.5699,35.95,53.59
		c7.29,14.28,14.6801,28.91,17.34,44.88c-10.1799,6.13-21.14,10.8099-31.4399,16.73c-4.26,2.49-8.85,4.34-13.09,6.85
		c-1.29,0.8401-4.02,2.12-2.16,3.87c8.26,11.7001,17.11,23,25.2,34.8201c1.53,1.78,0.3201,4.08-0.5599,5.86
		c-12.99,23.08-29.24,44.35-48.4,62.66c-11.6801,12.4399-24.95,23.23-38.5601,33.46c-9.6399,6.85-19.3199,13.75-29.73,19.35
		c2.52-6.73,7.35-12.46,8.8-19.59c9.9-16.98,17.49-35.14,24.4399-53.49c9.4-25.13,17.4401-50.79,23.53-76.92
		c9.34-40.65,14.22-82.41,12.87-124.14c0.8-4.13,0.25-8.2899-0.7-12.3199C1277.64,1077.77,1277.1801,1072.91,1276.67,1068.0601z"/>
	<path opacity="0.68" fill="#792B50" stroke="#792B50" stroke-width="0.5" enable-background="new    " d="M1137.4,1095.05
		c-0.8201-4.17-0.36-8.39,0.6799-12.4601C1137.98,1086.74,1138.46,1090.97,1137.4,1095.05z"/>
	<path opacity="0.69" fill="#6C2546" stroke="#6C2546" stroke-width="0.5" enable-background="new    " d="M1277.91,1082.65
		c0.95,4.03,1.5,8.1899,0.7,12.3199C1277.52,1090.9399,1278.01,1086.75,1277.91,1082.65z"/>
	<path fill="#842A56" stroke="#842A56" stroke-width="0.5" d="M1294.42,1087.04c10.22,0.5699,20.22,3.23,30.1799,5.52
		c40.9,10.49,80.01,26.8799,118.24,44.62c11.49,5.4199,22.9,10.98,34.1801,16.84c5.51,3.15,11.6699,5.2,16.66,9.24
		c13.5299,10.05,24.45,23.15,34.1,36.86c45.49,65.62,87.74,133.42,129.97,201.16c6.52,12.49,14.72,24.02,21.9301,36.12
		c20.2799,32.83,40.2899,65.8099,60.0399,98.96c6.8,10.62,10.65,23,11.91,35.51c0.88,9.89-0.4,20.4401-5.85,28.95
		c-15.65,26.6901-31.25,53.41-46.88,80.12c-3.78,6.1901-7.02,12.75-11.4301,18.54c-31.2999,39.1801-64.36,76.91-97.64,114.41
		c-22.0699,24.92-44.1,49.86-66.13,74.8099c-1.09,1.1901-2.5,1.99-3.8199,2.88c-2.88-2.25-5.4401-4.9399-8.7-6.62
		c-1.7201-0.7899-3.03-2.14-4.2301-3.51c2.0801-2.0699,4.29-4.0499,5.9401-6.49c0.89-7.6599-1.25-15.2799-3.39-22.5599
		c-8.2-23.34-23.1801-43.51-39.26-62.01c-2.91-3.41-5.92-6.73-9.1799-9.79c-1.17-1.45-2.26-2.9199-3.3401-4.39
		c0.52,0.3401,1.5601,1.03,2.0801,1.38c7.09-5.48,14.21-10.9199,20.8999-16.87c11.66-10.97,23.8201-21.52,34.49-33.51
		c17.3101-19.4199,32.1801-40.87,46.3101-62.6599c9.33-14.55,18.1899-29.4,26.5-44.5601c-2.3-1.74-4.87-3.1799-6.74-5.38
		c-1.5-1.78,0.42-3.6,1.15-5.23c2.88-5.51,7.77-10.71,7.11-17.35c0.0599-2.8301-2.51-4.5901-4.04-6.63
		c-43.64-50.6901-87.2999-101.38-130.87-152.13c-8.9299,29.34-21.83,57.98-41.52,81.74c0.2101,0.41,0.65,1.23,0.86,1.64
		c-5.74,45.89-8.62,92.14-9.1399,138.38c-0.28,28.09,0.5299,56.2,2.7599,84.21c-11.7599,0.9401-24.11,1.9-34.6499,7.6901
		c-12.5801,7.7699-21.9401,19.58-30.9,31.11c-35.4301,9.9099-70.74,20.5399-106.96,27.22c2.5099,7.9299,5,15.89,8.0099,23.65
		c30.55-7.2101,60.9801-14.9601,91.2301-23.3401c2.1799,6.6101,5.5699,13.2401,11.58,17.14c-0.12,0.4-0.38,1.2001-0.5,1.61
		c-1.73,3.53-4.04,6.8601-4.96,10.7301c-0.15,7.1499,0.14,14.6399,3.4199,21.1799c2.0601,4,5.23,7.91,9.87,8.89
		c-0.4099,8.95,6.7101,15.1901,10.24,22.72c1.17,2.17,1.8201,4.8,3.77,6.49c3.41,2.1001,7.62,1.2301,11.3,0.41
		c2.65,6.12,5.6799,13.35,12.71,15.41c6.39,1.15,13.2001,1.1899,19.35-1.15c7.89-2.92,15.9801-5.25,23.92-8.04
		c0.67,1.5701,1.36,3.1801,2.05,4.79c0.3899,1.26,0.7,2.61,1.01,3.95c-1.1001,0.8301-2.16,1.7101-3.2301,2.5801
		c-22.76,18-48.9099,31.3199-76,41.51c-40.74,15.11-83.7,23.7799-126.9199,27.6799c-7.75-39.6-15.2101-79.26-22.8301-118.88
		c-0.37-1.73-0.7699-3.4-1.09-5.1c-0.04-64.99,0.12-129.97-0.0599-194.96c4.47-1.24,8.0699-4.5601,9.72-8.89
		c3.5-8.78,3.24-19.41-1.77-27.5601c-1.67-2.99-4.86-4.4299-7.89-5.59c0-18.66-0.01-37.3199,0.01-55.98
		c4.75-1.3201,8.4399-5.01,9.98-9.66c3.03-8.41,2.79-18.3199-1.6899-26.16c-1.7101-3.24-5.01-5.0199-8.3101-6.24
		c0-43.1499,0.05-86.2999,0.01-129.45c-0.15-9.42,0.41-18.87-0.37-28.26c4.13-4.55,6.64-10.23,10.15-15.22
		c-1.4501,7.13-6.28,12.86-8.8,19.59c10.41-5.6,20.0901-12.5,29.73-19.35c13.6101-10.23,26.88-21.02,38.5601-33.46
		c19.16-18.3101,35.41-39.5801,48.4-62.66c0.88-1.78,2.09-4.08,0.5599-5.86c-8.09-11.8201-16.9399-23.12-25.2-34.8201
		c-1.86-1.75,0.87-3.0299,2.16-3.87c4.24-2.51,8.83-4.36,13.09-6.85c10.2999-5.92,21.26-10.6,31.4399-16.73
		c-2.6599-15.97-10.0499-30.6-17.34-44.88C1320.21,1121.61,1307.39,1104.21,1294.42,1087.04z"/>
	<path fill="#282341" stroke="#282341" stroke-width="0.5" d="M1173.8,1296.04c22.7999-0.0701,45.6-0.05,68.4099-0.01
		c-6.95,18.35-14.5399,36.51-24.4399,53.49c-3.51,4.99-6.02,10.6699-10.15,15.22c-1.65-2.54-3.65-4.79-5.63-7.05
		c-1.5599-2.4099-3.14-4.8099-4.45-7.34C1188.65,1332.6899,1180.8,1314.52,1173.8,1296.04z"/>
	<path fill="#B13B75" stroke="#B13B75" stroke-width="0.5" d="M1199.02,1529.96c1.6-3.84,5.1699-6.1899,8.96-7.51
		c3.3,1.2201,6.6,3,8.3101,6.24c4.48,7.8401,4.72,17.75,1.6899,26.16c-1.54,4.65-5.23,8.34-9.98,9.66
		c-3.27-1.23-6.5601-2.97-8.24-6.1901C1194.87,1549.78,1194.87,1538.79,1199.02,1529.96z"/>
	<path fill="#B13B75" stroke="#B13B75" stroke-width="0.5" d="M1198.6801,1628.6899c1.6-4.1,5.1699-6.9399,9.3099-8.2
		c3.03,1.16,6.22,2.6,7.89,5.59c5.01,8.15,5.27,18.78,1.77,27.5601c-1.65,4.33-5.25,7.65-9.72,8.89c-2.79-1.16-5.78-2.4-7.42-5.0801
		C1194.96,1649.0601,1194.6801,1637.77,1198.6801,1628.6899z"/>
	<path fill="#F1D4A8" stroke="#F1D4A8" stroke-width="0.5" d="M1372.92,1746.9301c10.5399-5.79,22.89-6.75,34.6499-7.6901
		c9.7101-0.3,20.53,1.41,27.7101,8.51c2.9,2.5601,6.4299,4.24,9.5699,6.49c4.7001,3.1,5.42,9.3101,6.02,14.46
		c2.1901,2.5801,4.63,4.9401,6.85,7.51c1.0801,1.4701,2.17,2.9401,3.3401,4.39c2.61,6.6801,5.85,13.24,6.83,20.4401
		c1,5.5-0.54,11.2799,1.51,16.63c4.22,12.73,6.24,26.0599,7.03,39.4299c1.88-13.41,2.2699-27.6799-3.15-40.36
		c-2.0701-4.96-1.12-10.45-1.78-15.64c-0.38-3.58-0.9399-7.13-1.26-10.71c16.08,18.5,31.0601,38.67,39.26,62.01
		c2.14,7.28,4.28,14.9,3.39,22.5599c-1.65,2.4401-3.86,4.42-5.9401,6.49c-8.76,8.0901-17.3199,16.49-27.2,23.24
		c-4.1899,3.9901-7.8199,9.29-13.84,10.64c-10.4701,3.5-22.26-1.0199-28.86-9.58c-0.6901-1.61-1.38-3.22-2.05-4.79
		c-7.9399,2.79-16.03,5.12-23.92,8.04c-6.1499,2.34-12.96,2.3-19.35,1.15c-7.03-2.0601-10.0599-9.29-12.71-15.41
		c-3.6801,0.8201-7.89,1.6901-11.3-0.41c-1.95-1.6899-2.6-4.3199-3.77-6.49c-3.5299-7.5299-10.6499-13.77-10.24-22.72
		c-4.64-0.98-7.8099-4.89-9.87-8.89c-3.2799-6.54-3.5699-14.03-3.4199-21.1799c0.9199-3.87,3.23-7.2001,4.96-10.7301
		c3.84-3.37,5.58-8.3099,8.5699-12.33c6.05-9.4,14.13-17.25,22.5-24.5699c4.92-3.87,9.5801-8.66,15.9-10.0801
		c12.5-3.0299,25.37-3.97,38.0601-5.88c-6.3301-1.6599-12.9401-0.71-19.39-0.72c-8.73,0.6-17.9301,1.26-25.72,5.59
		c-16.92,11.5801-30.8401,27.75-39.42,46.38c-6.01-3.8999-9.4-10.5299-11.58-17.14c-2.28-6.5-1.03-13.85,2.48-19.6599
		c1.6599-2.6801,3.4099-5.3101,5.24-7.87C1350.98,1766.51,1360.34,1754.7,1372.92,1746.9301 M1434.02,1808.96
		c-24.72,4.8-49.36,15.5-66.0601,34.92c-3.83,5-8.0699,10-9.9099,16.14c7.88-9.39,15.96-18.92,26.47-25.49
		c20.54-12.0601,43.14-20,65.6799-27.39C1444.73,1806.49,1439.37,1808.14,1434.02,1808.96 M1432.9399,1854.98
		c-14.1399,6.4301-28.1,13.24-42.24,19.67c-5.26,2.4299-10.0399,7.4299-10.63,13.38c4.9801-6.47,11.38-11.99,19.26-14.5701
		c8.29-2.5699,15.9401-6.72,23.74-10.46c6.3601-3.1899,12.78-6.3101,18.9501-9.88c2.6-1.55,5.63-2.71,7.33-5.37
		C1443.55,1849.34,1438.38,1852.51,1432.9399,1854.98z"/>
	<path fill="#B13B75" stroke="#B13B75" stroke-width="0.5" d="M1029.2,1767.16c23.1101,6.83,46.13,14.08,69.4301,20.2899
		c24.16,6.92,48.53,13.1801,73.24,17.8c-1.88,6.77-4.4399,13.33-6.47,20.05c-0.61,1.33-0.88,4.13-3,3.2799
		c-40-9.6799-80.01-19.5499-119.3301-31.75c-6.48-2.25-13.22-4.1499-18.97-7.98C1025.64,1781.58,1027.21,1774.3101,1029.2,1767.16z"
		/>
	<path fill="#E5BC84" stroke="#E5BC84" stroke-width="0.5" d="M1385.3,1776.33c7.7899-4.33,16.99-4.99,25.72-5.59
		c6.45,0.01,13.0599-0.9399,19.39,0.72c-12.6901,1.91-25.5601,2.8501-38.0601,5.88c-6.3199,1.42-10.98,6.2101-15.9,10.0801
		c-8.37,7.3199-16.45,15.1699-22.5,24.5699c-2.99,4.02-4.73,8.96-8.5699,12.33c0.12-0.4099,0.38-1.21,0.5-1.61
		C1354.46,1804.08,1368.38,1787.91,1385.3,1776.33z"/>
	<path fill="#972E62" stroke="#972E62" stroke-width="0.5" d="M1235.0601,1805.26c36.22-6.6801,71.5299-17.3101,106.96-27.22
		c-1.8301,2.5599-3.5801,5.1899-5.24,7.87c-3.51,5.8099-4.76,13.1599-2.48,19.6599c-30.25,8.38-60.6801,16.13-91.2301,23.3401
		C1240.0601,1821.15,1237.5699,1813.1899,1235.0601,1805.26z"/>
	<path fill="#E5BC84" stroke="#E5BC84" stroke-width="0.5" d="M1461.0601,1780.6c3.2599,3.0601,6.2699,6.38,9.1799,9.79
		c0.3201,3.58,0.88,7.13,1.26,10.71c0.66,5.1901-0.29,10.6801,1.78,15.64c5.4199,12.6801,5.03,26.95,3.15,40.36
		c-0.79-13.37-2.8101-26.7-7.03-39.4299c-2.05-5.3501-0.51-11.13-1.51-16.63C1466.91,1793.84,1463.67,1787.28,1461.0601,1780.6z"/>
	<path fill="#E5BC84" stroke="#E5BC84" stroke-width="0.5" d="M1434.02,1808.96c5.35-0.8199,10.71-2.47,16.1799-1.8199
		c-22.5399,7.39-45.1399,15.33-65.6799,27.39c-10.51,6.5699-18.59,16.1-26.47,25.49c1.84-6.14,6.08-11.14,9.9099-16.14
		C1384.66,1824.46,1409.3,1813.76,1434.02,1808.96z"/>
	<path fill="#E5BC84" stroke="#E5BC84" stroke-width="0.5" d="M1432.9399,1854.98c5.4401-2.47,10.6101-5.64,16.41-7.23
		c-1.7,2.66-4.73,3.8199-7.33,5.37c-6.17,3.5699-12.59,6.6901-18.9501,9.88c-7.7999,3.74-15.45,7.89-23.74,10.46
		c-7.88,2.5801-14.2799,8.1001-19.26,14.5701c0.5901-5.9501,5.37-10.9501,10.63-13.38
		C1404.84,1868.22,1418.8,1861.41,1432.9399,1854.98z"/>
	<path fill="#282341" stroke="#282341" stroke-width="0.5" d="M1206.9399,1862.98l1.02-0.1899
		c0.0801,175.39,0.02,350.79,0.04,526.1899c0.04,5.3801-0.27,10.79,0.38,16.1699l0.09,0.9102
		c-6.84-0.75-13.6899-1.3901-20.51-2.1602c-1.38,0.1401-3.7799-1.3398-4.08,0.8701c-23.84-3.21-47.91-5-71.83-7.75
		c-40.55-4.05-81.0701-8.45-121.6301-12.46c-1.49-0.25-2.94-0.6702-4.36-1.02c-9.89-2-20.06-2.25-30.06-3.55
		c-12.72-62.76-16.08-127.1001-14.16-191c2.55-79.02,13.22-157.63,29.1299-235.01c2.95-14.84,6.54-29.5499,9.63-44.35
		c19.4301,12.08,40.1,21.99,59.62,33.9301c0.88-0.25,1.77-0.4701,2.6801-0.67c44.91,20.51,92.61,36.97,142.24,40.03
		C1192.51,1942.96,1199.61,1902.95,1206.9399,1862.98z"/>
	<path fill="#1C192E" stroke="#1C192E" stroke-width="0.5" d="M1207.96,1862.79l1.12-0.2001
		c7.62,39.62,15.0801,79.28,22.8301,118.88c43.22-3.9,86.1799-12.5699,126.9199-27.6799c27.0901-10.1901,53.24-23.51,76-41.51
		c13.8,58.9199,24.42,118.62,31.1801,178.77c6.26,55.74,9.08,111.9199,6.95,168c-1.59,40.5798-5.88,81.1199-13.96,120.9399
		c-8.54,0.8999-17.08,1.77-25.61,2.6399c-0.1,0.4702-0.3,1.4102-0.4,1.8801c-60.3199,5.8101-120.61,12.4299-180.92,18.47
		c-5.71,0.8901-11.6599,0.46-17.0599,2.79c-0.01-0.6599-0.03-2-0.04-2.6599c-8.84,0.9299-17.6899,1.7898-26.52,2.7698l-0.0699-0.73
		c-0.65-5.3799-0.34-10.7898-0.38-16.1699C1207.98,2213.5801,1208.04,2038.1801,1207.96,1862.79z"/>
	<path opacity="0.29" fill="#260C19" stroke="#260C19" stroke-width="0.5" enable-background="new    " d="M1529.3,1897.29
		C1529.8101,1897.76,1529.8101,1897.76,1529.3,1897.29z"/>
	<path fill="#F1D4A8" stroke="#F1D4A8" stroke-width="0.5" d="M986.06,2383.54c1.42,0.3499,2.87,0.77,4.36,1.02
		c40.56,4.01,81.08,8.4099,121.6301,12.46c23.9199,2.75,47.99,4.54,71.83,7.75c0.61,52.76-1.0699,105.53-2.86,158.26
		c-3.87,104.4399-9.97,208.78-16.87,313.0701c-3.73,55.6399-7.7101,111.26-12.03,166.8599c-0.5,5.3101-0.62,10.6799-1.4,15.99
		c-2.2999,20.1201-0.2,40.5801,4.8101,60.1602c5.01,22.47,11.0699,44.7798,13.6599,67.71c3,26.27,4.2001,52.74,4.01,79.1699
		c-0.22,4.3999,0.4601,8.99-0.98,13.27c-2.58,7.0701-6.48,13.79-11.96,19.03c-7.65,7.3799-18.05,11.3499-28.5,12.52
		c-18.8101,1.9199-37.73-2.5701-55.1-9.54c-8.36-3.3999-11.4601-12.95-12.48-21.1799c-3.01-21.74,4.2799-42.8401,7.2899-64.1101
		c6.9501-44.95,9.05-90.51,8.87-135.9399c-0.39-6.8101,0.5901-13.8-1.2899-20.4199c-13.29-41.6802-24.3101-84.05-33.9-126.7302
		c-13.76-61.75-24.54-124.1699-32.2-186.97c-1.02-9.2998-2.34-18.5798-2.91-27.9099c0.26-29.8899,14.8-58.4199,35.94-79.04
		c-17.9399-37.04-28.42-77.1299-37.37-117.1499c-6.32-28.75-11.4-57.75-15.79-86.8501
		C990.42,2417.8401,987.7,2400.75,986.06,2383.54z"/>
	<path fill="#E5BC84" stroke="#E5BC84" stroke-width="0.5" d="M1252.0699,2402.98c60.3101-6.04,120.6001-12.6599,180.92-18.47
		c-6,49.1101-13.62,98.0801-24.61,146.3401c-8.62,36.9399-18.72,73.8699-35.37,108.0898c19.22,18.8,32.95,43.97,35.54,70.95
		c1.2899,10.4502-1.05,20.8501-1.9701,31.24c-6.01,51.2402-14.3099,102.2102-24.4399,152.8
		c-11.3101,55.9202-24.9401,111.4102-42.21,165.8c-1.8201,6.22-0.9,12.8101-1.26,19.21c-0.2001,56.4202,2.76,113.21,14.7699,168.48
		c2.1101,12.9001,3.3,26.3601,0.0801,39.1902c-1.5801,6.6399-5.8101,13.1099-12.59,15.26
		c-19.8501,7.5298-41.9801,12.5698-62.9901,7.1199c-15.6599-3.96-28.3199-17.22-31.8999-32.8799c-0.79-25.74,0.22-51.52,2.5-77.1602
		c1.4099-17.5601,4.5-34.9199,8.51-52.05c4.75-21.8298,11.5199-43.4399,12.1-65.95c0.6799-7.28-0.9301-14.5-0.28-21.74l-0.75-0.04
		c-12.15-157.4299-22.73-315.01-29.24-472.78c-2.34-60.1799-4.21-120.3899-3.87-180.6199
		C1240.41,2403.4399,1246.36,2403.8701,1252.0699,2402.98z"/>
	<path fill="#453F3F" stroke="#453F3F" stroke-width="0.5" d="M1155.53,3119.1101c-5.01-19.5801-7.11-40.04-4.8101-60.1602
		c1.13,9.3901,3.49,18.6001,5.0601,27.9399c9.2999,48.8801,18.1599,97.8501,25.65,147.04c4.37,30.49,6.75,61.29,6.6399,92.1001
		c0.53,8.4199-5.34,15.4199-11.09,20.8599c-12.13,10.8401-27.0499,17.9202-41.91,24.1902c-6.6,2.53-13.1699,5.3098-20.0399,7.03
		c-6.3,0.0598-12.12-2.8801-17.76-5.3301c-13.71-6.5-26.65-14.49-39.42-22.6201c-4.1-2.8098-8.84-5.0598-11.63-9.3398
		c-6.4199-9.24-6.63-21.26-4.96-31.98c3.76-19.6702,7.91-39.27,12.1799-58.8301c5.4401-24.5901,11.4801-49.0601,16.1201-73.8201
		c6.9099-38.4299,9.6-77.55,9.49-116.5698c1.88,6.6199,0.8999,13.6099,1.2899,20.4199c0.1801,45.4299-1.9199,90.99-8.87,135.9399
		c-3.01,21.27-10.2999,42.3701-7.2899,64.1101c1.0199,8.23,4.12,17.78,12.48,21.1799c17.37,6.97,36.2899,11.46,55.1,9.54
		c10.45-1.1702,20.85-5.1401,28.5-12.52c5.48-5.24,9.38-11.96,11.96-19.03c1.4401-4.28,0.76-8.8701,0.98-13.27
		c0.1901-26.4299-1.01-52.8999-4.01-79.1699C1166.6,3163.8899,1160.54,3141.5801,1155.53,3119.1101z"/>
	<path fill="#3D3532" stroke="#3D3532" stroke-width="0.5" d="M1268.12,3059.1699l0.75,0.04c-0.65,7.24,0.96,14.46,0.28,21.74
		c-0.5801,22.51-7.35,44.1201-12.1,65.95c-4.01,17.1301-7.1001,34.49-8.51,52.05c-2.28,25.6401-3.29,51.4202-2.5,77.1602
		c3.58,15.6599,16.24,28.9199,31.8999,32.8799c21.01,5.45,43.14,0.4099,62.9901-7.1199c6.7799-2.1501,11.0099-8.6201,12.59-15.26
		c3.22-12.8301,2.03-26.29-0.0801-39.1902c-12.0099-55.27-14.97-112.0598-14.7699-168.48c0.36-6.3999-0.5601-12.99,1.26-19.21
		c-0.13,28.3101,1.45,56.6401,4.74,84.77c2.46,22.49,7.13,44.6599,12.08,66.71c7.45,32.4299,14.73,64.9102,20.99,97.6001
		c1.23,7.6299,1.34,15.6099-0.76,23.1299c-1.6799,5.8601-5.0699,11.55-10.4399,14.71
		c-15.78,10.2002-31.7001,20.3801-48.9301,27.9702c-5.2999,1.99-11.21,4.8799-16.89,2.6699c-16.89-5.74-33.52-12.7-48.5-22.49
		c-8.9-6.1702-18.51-13.6899-21.12-24.75c-0.91-42.1201,4-84.1501,11.09-125.6001c6.3701-38.6199,13.3101-77.1399,20.65-115.5898
		C1264.4399,3078.9299,1267.15,3069.1699,1268.12,3059.1699z"/>
</g>
</svg>
